<svg xmlns="http://www.w3.org/2000/svg" version="1.1" xmlns:xlink="http://www.w3.org/1999/xlink" xmlns:svgjs="http://svgjs.dev/svgjs" width="1500" height="1500" viewBox="0 0 1500 1500"><rect width="1500" height="1500" fill="#ffffff"></rect><g transform="matrix(0.6666666666666666,0,0,0.6666666666666666,249.39393939393938,438.5856950067477)"><svg viewBox="0 0 396 247" data-background-color="#463746" preserveAspectRatio="xMidYMid meet" height="935" width="1500" xmlns="http://www.w3.org/2000/svg" xmlns:xlink="http://www.w3.org/1999/xlink"><g id="tight-bounds" transform="matrix(1,0,0,1,0.2400000000000091,-0.09999999999999432)"><svg viewBox="0 0 395.52 247.2" height="247.2" width="395.52"><g><svg></svg></g><g><svg viewBox="0 0 395.52 247.2" height="247.2" width="395.52"><g transform="matrix(1,0,0,1,75.54432,77.76138364844644)"><svg viewBox="0 0 244.43135999999998 91.67723270310711" height="91.67723270310711" width="244.43135999999998"><g><svg viewBox="0 0 244.43135999999998 91.67723270310711" height="91.67723270310711" width="244.43135999999998"><g><svg viewBox="0 0 244.43135999999998 91.67723270310711" height="91.67723270310711" width="244.43135999999998"><g><svg viewBox="0 0 244.43135999999998 91.67723270310711" height="91.67723270310711" width="244.43135999999998"><g id="textblocktransform"><svg viewBox="0 0 244.43135999999998 91.67723270310711" height="91.67723270310711" width="244.43135999999998" id="textblock"><g><svg viewBox="0 0 244.43135999999998 63.77788621364576" height="63.77788621364576" width="244.43135999999998"><g transform="matrix(1,0,0,1,0,0)"><svg width="244.43135999999998" viewBox="2.48 -34.93 181.35000000000002 47.33" height="63.77788621364576" data-palette-color="#ffffff"><path d="M13.5 0.65L13.5 0.65Q10.4 0.65 7.9-0.95 5.4-2.55 3.94-5.4 2.48-8.25 2.48-12L2.48-12Q2.48-15.98 3.93-18.81 5.38-21.65 7.88-23.18 10.38-24.7 13.5-24.7L13.5-24.7Q16.3-24.7 18.3-23.56 20.3-22.43 21.53-20.51 22.75-18.6 23.21-16.18 23.68-13.75 23.38-11.18L23.38-11.18 6.28-11.18 6.28-13.93 20.13-13.93 18.98-13.18Q19.05-14.53 18.84-15.88 18.63-17.23 18.03-18.36 17.43-19.5 16.34-20.19 15.25-20.88 13.58-20.88L13.58-20.88Q11.48-20.88 10.06-19.83 8.65-18.78 7.93-17.01 7.2-15.25 7.2-13.15L7.2-13.15 7.2-11.23Q7.2-8.9 7.9-7.1 8.6-5.3 9.99-4.26 11.38-3.23 13.5-3.23L13.5-3.23Q15.58-3.23 16.94-4.2 18.3-5.18 18.63-7.13L18.63-7.13 23.48-7.13Q23.1-4.78 21.75-3.03 20.4-1.28 18.29-0.31 16.18 0.65 13.5 0.65ZM36.12 0L26.8-24.05 32.25-24.05 39.02-4.08 38.52-4.08 45.3-24.05 50.75-24.05 41.4 0 36.12 0ZM65 0.65L65 0.65Q61.9 0.65 59.4-0.95 56.9-2.55 55.43-5.4 53.97-8.25 53.97-12L53.97-12Q53.97-15.98 55.42-18.81 56.87-21.65 59.37-23.18 61.87-24.7 65-24.7L65-24.7Q67.8-24.7 69.8-23.56 71.8-22.43 73.02-20.51 74.25-18.6 74.71-16.18 75.17-13.75 74.87-11.18L74.87-11.18 57.77-11.18 57.77-13.93 71.62-13.93 70.47-13.18Q70.55-14.53 70.33-15.88 70.12-17.23 69.52-18.36 68.92-19.5 67.83-20.19 66.75-20.88 65.07-20.88L65.07-20.88Q62.97-20.88 61.56-19.83 60.15-18.78 59.42-17.01 58.7-15.25 58.7-13.15L58.7-13.15 58.7-11.23Q58.7-8.9 59.4-7.1 60.1-5.3 61.48-4.26 62.87-3.23 65-3.23L65-3.23Q67.07-3.23 68.43-4.2 69.8-5.18 70.12-7.13L70.12-7.13 74.97-7.13Q74.59-4.78 73.25-3.03 71.9-1.28 69.78-0.31 67.67 0.65 65 0.65ZM103.97 0L99.24 0 99.24-14.1Q99.24-17.23 97.76-18.84 96.27-20.45 93.74-20.45L93.74-20.45Q91.74-20.45 90.26-19.36 88.77-18.28 87.96-16.19 87.14-14.1 87.14-11.1L87.14-11.1 85.44-11.1Q85.44-15.53 86.58-18.55 87.72-21.58 89.84-23.14 91.97-24.7 94.94-24.7L94.94-24.7Q97.84-24.7 99.86-23.4 101.87-22.1 102.92-19.71 103.97-17.32 103.97-14.1L103.97-14.1 103.97 0ZM87.14 0L82.39 0 82.39-24.05 86.52-24.05 87.14-18.85 87.14 0ZM120.72 0.65L120.72 0.65Q118.67 0.65 117.02-0.13 115.37-0.9 114.4-2.46 113.44-4.03 113.44-6.4L113.44-6.4 113.44-30.6 118.17-30.6 118.17-6.55Q118.17-3.15 121.34-3.15L121.34-3.15Q122.32-3.15 123.24-3.36 124.17-3.58 125.34-4L125.34-4 126.02-0.63Q124.69-0.08 123.4 0.29 122.12 0.65 120.72 0.65ZM125.29-20.83L109.77-20.83 109.77-24.05 125.29-24.05 125.29-20.83ZM134.94-29.18L134.94-29.18Q133.51-29.18 132.7-29.96 131.89-30.75 131.89-32.1L131.89-32.1Q131.89-33.4 132.7-34.16 133.51-34.93 134.94-34.93L134.94-34.93Q136.34-34.93 137.15-34.16 137.96-33.4 137.96-32.1L137.96-32.1Q137.96-30.75 137.15-29.96 136.34-29.18 134.94-29.18ZM137.31 0L132.56 0 132.56-24.13 137.31-24.13 137.31 0ZM153.86 0L149.09 0 149.09-27.43Q149.09-29.93 150.05-31.49 151.01-33.05 152.61-33.8 154.21-34.55 156.14-34.55L156.14-34.55Q157.24-34.55 158.4-34.4 159.56-34.25 160.69-33.95L160.69-33.95 159.79-30.25Q159.09-30.5 158.37-30.65 157.66-30.8 157.01-30.8L157.01-30.8Q156.24-30.8 155.51-30.51 154.79-30.23 154.32-29.48 153.86-28.73 153.86-27.35L153.86-27.35 153.86 0ZM158.59-20.83L145.31-20.83 145.31-24.05 158.59-24.05 158.59-20.83ZM171.33 0L161.56-24.05 166.88-24.05 174.13-4.15 173.16-4.15 178.98-24.05 183.83-24.05 174.71 4.63Q173.46 8.53 171.5 10.46 169.53 12.4 166.58 12.4L166.58 12.4Q164.93 12.4 163.42 11.98 161.91 11.55 160.33 10.73L160.33 10.73 160.33 6.45Q161.68 7.4 162.93 7.83 164.18 8.25 165.53 8.25L165.53 8.25Q166.88 8.25 167.85 7.44 168.81 6.63 169.47 5.29 170.13 3.95 170.61 2.38L170.61 2.38 171.33 0Z" opacity="1" transform="matrix(1,0,0,1,0,0)" fill="#000000" class="wordmark-text-0" data-fill-palette-color="primary" id="text-0"></path></svg></g></svg></g><g transform="matrix(1,0,0,1,0,78.8343144794184)"><svg viewBox="0 0 143.50565145599998 12.842918223688713" height="12.842918223688713" width="143.50565145599998"><g transform="matrix(1,0,0,1,0,0)"><svg width="143.50565145599998" viewBox="1.15 -35.85 539.65 48.3" height="12.842918223688713" data-palette-color="#ffffff"><path d="M1.15-33.95L1.15-33.95Q1.75-33.9 2.53-33.88 3.3-33.85 4.17-33.83 5.05-33.8 5.83-33.8 6.6-33.8 7.2-33.8L7.2-33.8Q8-33.8 9.13-33.83 10.25-33.85 11.48-33.88 12.7-33.9 13.65-33.95L13.65-33.95Q13.65-33.45 13.6-32.8 13.55-32.15 13.4-31.55L13.4-31.55Q11.65-31.4 10.9-31.03 10.15-30.65 10.25-29.58 10.35-28.5 11.1-26.25L11.1-26.25Q12.05-23.4 13.1-20.08 14.15-16.75 15.18-13.35 16.2-9.95 17.1-6.9L17.1-6.9 15.8-6.9 25.05-33.95Q25.5-34.1 26.13-34.15 26.75-34.2 27.55-34.2L27.55-34.2Q29.2-29.9 30.93-25.25 32.65-20.6 34.33-15.98 36-11.35 37.5-7L37.5-7 36.35-7 41.8-24.4Q42.95-28.15 42.38-29.68 41.8-31.2 39.35-31.55L39.35-31.55Q39.15-32.1 39.08-32.77 39-33.45 39-33.95L39-33.95Q40.05-33.9 41.35-33.85 42.65-33.8 44-33.8L44-33.8Q45.15-33.8 46.53-33.85 47.9-33.9 48.9-33.95L48.9-33.95Q48.9-33.35 48.83-32.75 48.75-32.15 48.5-31.55L48.5-31.55Q47.65-31.3 47.03-30.65 46.4-30 45.8-28.5 45.2-27 44.3-24.3L44.3-24.3 36.7 0.15Q36.2 0.3 35.5 0.38 34.8 0.45 34.15 0.45L34.15 0.45Q32.65-3.85 31-8.33 29.35-12.8 27.68-17.32 26-21.85 24.35-26.1L24.35-26.1 25.05-26.1 16.2 0.15Q15.9 0.25 15.43 0.33 14.95 0.4 14.48 0.43 14 0.45 13.6 0.45L13.6 0.45Q11.6-6.2 9.53-12.78 7.45-19.35 5.35-25.65L5.35-25.65Q4.45-28.35 3.9-29.55 3.35-30.75 2.83-31.08 2.3-31.4 1.4-31.5L1.4-31.5Q1.25-32.05 1.2-32.7 1.15-33.35 1.15-33.95ZM62.95 0.45L62.95 0.45Q59.2 0.45 56.77-1.15 54.35-2.75 53.12-5.45 51.9-8.15 51.9-11.4L51.9-11.4Q51.9-14.7 53.2-17.4 54.5-20.1 56.92-21.73 59.35-23.35 62.65-23.35L62.65-23.35Q66-23.35 68.05-21.95 70.1-20.55 71.12-18.2 72.15-15.85 72.3-12.9L72.3-12.9Q72.1-11.75 71.45-11L71.45-11Q70.45-11 68.72-11 67-11 64.87-10.98 62.75-10.95 60.52-10.88 58.3-10.8 56.35-10.7L56.35-10.7 56.35-13.45 66.65-13.45Q66.65-16.75 65.52-18.75 64.4-20.75 62.3-20.75L62.3-20.75Q61.1-20.75 60-20 58.9-19.25 58.2-17.48 57.5-15.7 57.5-12.55L57.5-12.55Q57.5-10.05 58.15-7.78 58.8-5.5 60.35-4.08 61.9-2.65 64.75-2.65L64.75-2.65Q66.4-2.65 68.02-3.35 69.65-4.05 70.9-5.35L70.9-5.35Q71.3-5.15 71.67-4.6 72.05-4.05 72.1-3.55L72.1-3.55Q70.35-1.4 68.07-0.48 65.8 0.45 62.95 0.45ZM86.04 0.15L86.04 0.15Q86.04-0.6 86.12-1.2 86.19-1.8 86.34-2.25L86.34-2.25Q88.34-2.35 89.04-3.23 89.74-4.1 89.74-6.6L89.74-6.6 89.74-15.7Q89.74-17.05 89.52-17.85 89.29-18.65 88.49-19.05 87.69-19.45 86.04-19.5L86.04-19.5Q86.04-20.1 86.14-20.63 86.24-21.15 86.49-21.65L86.49-21.65Q87.54-21.7 88.94-21.98 90.34-22.25 91.64-22.63 92.94-23 93.64-23.35L93.64-23.35Q94.09-23.2 94.47-22.7 94.84-22.2 94.84-21.15L94.84-21.15Q94.84-20.35 94.72-19.3 94.59-18.25 94.29-16.15L94.29-16.15 93.84-16.1Q94.59-18.15 94.94-18.88 95.29-19.6 95.54-19.85L95.54-19.85Q96.39-21 98.27-22.18 100.14-23.35 102.64-23.35L102.64-23.35Q104.79-23.35 106.57-22.38 108.34-21.4 109.19-19.2L109.19-19.2Q109.49-18.5 109.49-17.4L109.49-17.4 109.29-17.4Q109.84-18.85 110.54-19.7L110.54-19.7Q111.39-20.8 113.19-21.95 114.99-23.1 117.49-23.1L117.49-23.1Q119.54-23.1 121.19-22.3 122.84-21.5 123.82-19.7 124.79-17.9 124.79-14.85L124.79-14.85 124.79-7Q124.79-5.1 125.09-4.1 125.39-3.1 126.02-2.73 126.64-2.35 127.69-2.25L127.69-2.25Q127.84-1.75 127.89-1.18 127.94-0.6 127.94 0.15L127.94 0.15Q126.84 0.05 125.34 0.03 123.84 0 122.29 0L122.29 0Q121.24 0 120.12 0.03 118.99 0.05 117.92 0.08 116.84 0.1 115.99 0.15L115.99 0.15Q115.99-0.65 116.04-1.23 116.09-1.8 116.24-2.25L116.24-2.25Q117.54-2.35 118.27-2.75 118.99-3.15 119.27-4.15 119.54-5.15 119.54-6.9L119.54-6.9 119.54-13.7Q119.54-17.15 118.37-18.38 117.19-19.6 115.29-19.6L115.29-19.6Q113.99-19.6 112.74-18.78 111.49-17.95 110.69-16.13 109.89-14.3 109.89-11.35L109.89-11.35 109.89-6.65Q109.89-4.1 110.64-3.23 111.39-2.35 113.24-2.25L113.24-2.25Q113.39-1.8 113.47-1.2 113.54-0.6 113.54 0.15L113.54 0.15Q112.29 0.05 110.59 0.03 108.89 0 107.34 0L107.34 0Q105.74 0 104.09 0.03 102.44 0.05 101.09 0.15L101.09 0.15Q101.09-0.6 101.14-1.2 101.19-1.8 101.34-2.25L101.34-2.25Q102.64-2.35 103.37-2.75 104.09-3.15 104.39-4.15 104.69-5.15 104.69-7L104.69-7 104.69-14Q104.69-17.35 103.49-18.6 102.29-19.85 100.34-19.85L100.34-19.85Q99.09-19.85 97.84-18.98 96.59-18.1 95.79-16.28 94.99-14.45 94.99-11.55L94.99-11.55 94.99-6.65Q94.99-4.15 95.69-3.25 96.39-2.35 98.34-2.25L98.34-2.25Q98.49-1.75 98.54-1.18 98.59-0.6 98.59 0.15L98.59 0.15Q97.79 0.1 96.67 0.08 95.54 0.05 94.39 0.03 93.24 0 92.29 0L92.29 0Q91.39 0 90.22 0.03 89.04 0.05 87.94 0.08 86.84 0.1 86.04 0.15ZM147.14 0.45L147.14 0.45Q146.54 0.2 146.19-0.48 145.84-1.15 145.84-2.5L145.84-2.5Q145.84-3 145.91-3.68 145.99-4.35 146.14-4.95L146.14-4.95 146.29-4.95Q146.09-4 145.51-3.05 144.94-2.1 144.09-1.35L144.09-1.35Q143.19-0.6 141.84-0.13 140.49 0.35 138.64 0.35L138.64 0.35Q135.44 0.35 133.72-1.07 131.99-2.5 131.99-5.05L131.99-5.05Q131.99-7 132.91-8.38 133.84-9.75 135.31-10.68 136.79-11.6 138.54-12.15 140.29-12.7 142.01-13.03 143.74-13.35 145.14-13.55L145.14-13.55Q145.14-15.45 145.06-16.55 144.99-17.65 144.76-18.32 144.54-19 144.09-19.5L144.09-19.5Q143.49-20.2 142.74-20.55 141.99-20.9 141.09-20.9L141.09-20.9Q139.49-20.9 138.59-19.93 137.69-18.95 137.29-17.63 136.89-16.3 136.79-15.15L136.79-15.15Q136.09-15.15 135.19-15.25 134.29-15.35 133.74-15.55L133.74-15.55Q133.84-16.85 133.81-18.4 133.79-19.95 133.49-21.15L133.49-21.15Q135.59-22.2 137.99-22.78 140.39-23.35 142.44-23.35L142.44-23.35Q144.59-23.35 146.04-22.8 147.49-22.25 148.29-21.35L148.29-21.35Q149.54-20.15 149.99-18.18 150.44-16.2 150.44-12.8L150.44-12.8 150.44-7.65Q150.44-6.2 150.66-5.35 150.89-4.5 151.54-4.13 152.19-3.75 153.49-3.7L153.49-3.7Q153.54-3.1 153.47-2.4 153.39-1.7 153.14-1.1L153.14-1.1Q151.74-1.05 150.09-0.65 148.44-0.25 147.14 0.45ZM140.34-2.8L140.34-2.8Q141.44-2.8 142.54-3.53 143.64-4.25 144.39-5.73 145.14-7.2 145.14-9.6L145.14-9.6 145.14-11.35Q143.84-11.15 142.49-10.85 141.14-10.55 140.01-10 138.89-9.45 138.22-8.55 137.54-7.65 137.54-6.15L137.54-6.15Q137.54-4.4 138.39-3.6 139.24-2.8 140.34-2.8ZM156.99 0.15L156.99 0.15Q156.99-0.45 157.04-1.1 157.09-1.75 157.24-2.25L157.24-2.25Q159.24-2.3 159.96-3.2 160.69-4.1 160.69-6.6L160.69-6.6 160.69-28.45Q160.69-29.65 160.44-30.43 160.19-31.2 159.39-31.6 158.59-32 156.94-32L156.94-32Q156.94-32.6 157.04-33.15 157.14-33.7 157.39-34.15L157.39-34.15Q158.44-34.15 159.94-34.4 161.44-34.65 162.76-35.05 164.09-35.45 164.74-35.85L164.74-35.85Q165.24-35.65 165.59-35.15 165.94-34.65 165.94-33.65L165.94-33.65 165.94-6.6Q165.94-4.15 166.59-3.23 167.24-2.3 168.79-2.25L168.79-2.25Q168.94-1.75 168.99-1.05 169.04-0.35 169.04 0.15L169.04 0.15Q167.79 0.05 166.24 0.03 164.69 0 163.09 0L163.09 0Q162.04 0 160.91 0.03 159.79 0.05 158.79 0.08 157.79 0.1 156.99 0.15ZM175.29 0.45L175.29 0.45Q174.19-1.25 172.36-3.6 170.54-5.95 168.49-8.33 166.44-10.7 164.59-12.5L164.59-12.5 164.44-11.5 169.59-16.15Q171.24-17.6 171.89-18.5 172.54-19.4 172.54-19.85L172.54-19.85Q172.54-20.25 172.19-20.45 171.84-20.65 171.14-20.65L171.14-20.65Q170.94-21.25 170.86-21.83 170.79-22.4 170.79-23L170.79-23Q171.79-22.95 172.79-22.93 173.79-22.9 174.74-22.9 175.69-22.9 176.49-22.9L176.49-22.9Q177.44-22.9 178.66-22.93 179.89-22.95 181.19-23L181.19-23Q181.19-22.4 181.11-21.78 181.04-21.15 180.79-20.65L180.79-20.65Q179.79-20.6 178.84-20.3 177.89-20 176.89-19.38 175.89-18.75 174.64-17.6L174.64-17.6 169.49-12.9 169.29-14.75Q171.19-12.85 173.11-10.7 175.04-8.55 177.59-5.4L177.59-5.4Q178.49-4.25 179.19-3.65 179.89-3.05 180.64-2.78 181.39-2.5 182.49-2.4L182.49-2.4Q182.49-1.65 182.41-1.05 182.34-0.45 182.19 0L182.19 0Q180.94 0 179.79 0.05 178.64 0.1 177.51 0.18 176.39 0.25 175.29 0.45ZM196.38 0.45L196.38 0.45Q192.63 0.45 190.21-1.15 187.78-2.75 186.56-5.45 185.34-8.15 185.34-11.4L185.34-11.4Q185.34-14.7 186.63-17.4 187.94-20.1 190.36-21.73 192.78-23.35 196.09-23.35L196.09-23.35Q199.44-23.35 201.49-21.95 203.53-20.55 204.56-18.2 205.59-15.85 205.74-12.9L205.74-12.9Q205.53-11.75 204.88-11L204.88-11Q203.88-11 202.16-11 200.44-11 198.31-10.98 196.19-10.95 193.96-10.88 191.74-10.8 189.78-10.7L189.78-10.7 189.78-13.45 200.09-13.45Q200.09-16.75 198.96-18.75 197.84-20.75 195.74-20.75L195.74-20.75Q194.53-20.75 193.44-20 192.34-19.25 191.63-17.48 190.94-15.7 190.94-12.55L190.94-12.55Q190.94-10.05 191.59-7.78 192.24-5.5 193.78-4.08 195.34-2.65 198.19-2.65L198.19-2.65Q199.84-2.65 201.46-3.35 203.09-4.05 204.34-5.35L204.34-5.35Q204.74-5.15 205.11-4.6 205.49-4.05 205.53-3.55L205.53-3.55Q203.78-1.4 201.51-0.48 199.24 0.45 196.38 0.45ZM233.38-6.2L236.83-14.9Q238.08-17.95 237.46-19.07 236.83-20.2 234.78-20.6L234.78-20.6Q234.58-21.15 234.48-21.78 234.38-22.4 234.38-23L234.38-23Q235.53-22.95 236.75-22.93 237.98-22.9 239.33-22.9L239.33-22.9Q240.73-22.9 241.98-22.93 243.23-22.95 244.33-23L244.33-23Q244.33-22.45 244.28-21.83 244.23-21.2 243.98-20.6L243.98-20.6Q243.08-20.4 242.48-19.93 241.88-19.45 241.33-18.45 240.78-17.45 240.03-15.65L240.03-15.65 232.68 1.85Q231.28 5.25 230.13 7.35 228.98 9.45 227.98 10.55 226.98 11.65 225.98 12.05 224.98 12.45 223.83 12.45L223.83 12.45Q222.28 12.45 221.31 12 220.33 11.55 219.78 11.05L219.78 11.05Q219.58 10.25 219.63 9.08 219.68 7.9 219.88 7.15L219.88 7.15Q220.73 7.3 221.66 7.43 222.58 7.55 223.53 7.55L223.53 7.55Q224.98 7.55 226.25 6.88 227.53 6.2 228.48 4.7L228.48 4.7Q229.08 3.75 230.46 0.78 231.83-2.2 233.38-6.2L233.38-6.2ZM233.58-4.45L230.78 1.35Q229.53-1.35 228.18-4.35 226.83-7.35 225.58-10.13 224.33-12.9 223.38-14.9L223.38-14.9Q222.33-17.2 221.58-18.35 220.83-19.5 220.18-19.98 219.53-20.45 218.73-20.6L218.73-20.6Q218.58-21.1 218.48-21.73 218.38-22.35 218.38-23L218.38-23Q219.83-22.95 221.38-22.93 222.93-22.9 224.33-22.9L224.33-22.9Q225.78-22.9 227.75-22.93 229.73-22.95 231.28-23L231.28-23Q231.28-22.3 231.21-21.68 231.13-21.05 230.93-20.6L230.93-20.6Q228.33-20.15 227.96-19.1 227.58-18.05 228.93-15.35L228.93-15.35Q229.63-13.9 230.48-11.95 231.33-10 232.16-8.03 232.98-6.05 233.58-4.45L233.58-4.45ZM258.58 0.45L258.58 0.45Q255.03 0.45 252.4-1.03 249.78-2.5 248.35-5.15 246.93-7.8 246.93-11.4L246.93-11.4Q246.93-14.9 248.45-17.6 249.98-20.3 252.63-21.83 255.28-23.35 258.63-23.35L258.63-23.35Q262.38-23.35 264.98-21.85 267.58-20.35 268.93-17.7 270.28-15.05 270.28-11.5L270.28-11.5Q270.28-8.05 268.83-5.33 267.38-2.6 264.75-1.07 262.13 0.45 258.58 0.45ZM259.08-2.2L259.08-2.2Q261.88-2.2 263.23-4.58 264.58-6.95 264.58-10.75L264.58-10.75Q264.58-13.85 263.7-16.13 262.83-18.4 261.35-19.58 259.88-20.75 258.13-20.75L258.13-20.75Q255.38-20.75 254.03-18.45 252.68-16.15 252.68-12.55L252.68-12.55Q252.68-9.35 253.45-7 254.23-4.65 255.68-3.43 257.13-2.2 259.08-2.2ZM283.58 0.2L283.58 0.2Q280.13 0.2 278.2-1.75 276.28-3.7 276.28-8.75L276.28-8.75 276.28-15.8Q276.28-17.7 275.78-18.57 275.28-19.45 273.03-19.5L273.03-19.5Q273.03-20.1 273.1-20.63 273.18-21.15 273.43-21.65L273.43-21.65Q275.28-21.75 277.25-22.25 279.23-22.75 280.38-23.35L280.38-23.35Q280.88-23.15 281.23-22.65 281.58-22.15 281.58-21L281.58-21 281.58-9.9Q281.58-6.55 282.43-4.85 283.28-3.15 285.43-3.15L285.43-3.15Q287.78-3.15 289.38-5.2 290.98-7.25 290.98-11.55L290.98-11.55 290.98-16.05Q290.98-17.95 290.35-18.82 289.73-19.7 287.28-19.75L287.28-19.75Q287.28-20.35 287.33-20.88 287.38-21.4 287.68-21.9L287.68-21.9Q289.88-22 291.9-22.43 293.93-22.85 295.08-23.35L295.08-23.35Q295.58-23.15 295.93-22.65 296.28-22.15 296.28-21L296.28-21 296.28-6.65 291.68-4.8Q291.43-4.1 290.98-3.45 290.53-2.8 289.93-2.25L289.93-2.25Q288.68-1.05 287.18-0.43 285.68 0.2 283.58 0.2ZM292.78 0.45L292.78 0.45Q292.18 0.2 291.8-0.33 291.43-0.85 291.43-2.45L291.43-2.45Q291.43-3.05 291.53-4.08 291.63-5.1 291.93-6.7L291.93-6.7 296.28-7.25Q296.28-6 296.48-5.2 296.68-4.4 297.33-4.05 297.98-3.7 299.33-3.7L299.33-3.7Q299.33-3.1 299.28-2.4 299.23-1.7 298.98-1.1L298.98-1.1Q297.58-1.05 295.83-0.65 294.08-0.25 292.78 0.45ZM311.92-11.35L311.92-7.75Q311.92-5.6 312.37-4.45 312.82-3.3 313.85-2.85 314.87-2.4 316.52-2.25L316.52-2.25Q316.67-1.8 316.75-1.2 316.82-0.6 316.82 0.15L316.82 0.15Q316.02 0.1 314.92 0.08 313.82 0.05 312.57 0.03 311.32 0 310.07 0L310.07 0Q308.17 0 306.12 0.03 304.07 0.05 302.92 0.15L302.92 0.15Q302.92-0.65 302.97-1.25 303.02-1.85 303.22-2.25L303.22-2.25Q304.57-2.35 305.3-2.75 306.02-3.15 306.32-4.1 306.62-5.05 306.62-6.8L306.62-6.8 306.62-11.35 311.92-11.35ZM311.02-15.3L311.92-14.65 311.92-10.6 306.62-10.6 306.62-16.15 311.92-21Q311.92-19.45 311.62-18.1 311.32-16.75 311.02-15.3L311.02-15.3ZM311.92-11.9L310.82-15Q311.32-16.35 311.65-17.32 311.97-18.3 312.32-18.9L312.32-18.9Q313.42-20.65 314.95-21.8 316.47-22.95 318.47-22.95L318.47-22.95Q320.37-22.95 321.92-21.75L321.92-21.75Q321.82-20.9 321.72-19.78 321.62-18.65 321.6-17.53 321.57-16.4 321.57-15.45L321.57-15.45Q321.02-15.25 320.12-15.1 319.22-14.95 318.32-14.95L318.32-14.95Q318.22-17.2 317.6-17.98 316.97-18.75 315.97-18.75L315.97-18.75Q315.17-18.75 314.2-17.8 313.22-16.85 312.57-15.3 311.92-13.75 311.92-11.9L311.92-11.9ZM311.92-21L306.62-10.6 306.62-15.8Q306.62-17.1 306.4-17.88 306.17-18.65 305.37-19.05 304.57-19.45 302.92-19.5L302.92-19.5Q302.92-20.1 303.02-20.65 303.12-21.2 303.37-21.65L303.37-21.65Q305.27-21.75 307.42-22.25 309.57-22.75 310.72-23.35L310.72-23.35Q311.22-23.15 311.57-22.65 311.92-22.15 311.92-21L311.92-21ZM334.72 12.25L334.72 12.25Q334.72 11.45 334.77 10.85 334.82 10.25 335.02 9.85L335.02 9.85Q336.37 9.75 337.09 9.35 337.82 8.95 338.12 8 338.42 7.05 338.42 5.3L338.42 5.3 338.42-15.8Q338.42-17.1 338.19-17.88 337.97-18.65 337.17-19.05 336.37-19.45 334.72-19.5L334.72-19.5Q334.72-20.1 334.82-20.65 334.92-21.2 335.17-21.65L335.17-21.65Q337.07-21.75 339.22-22.25 341.37-22.75 342.52-23.35L342.52-23.35Q343.02-23.15 343.37-22.65 343.72-22.15 343.72-21L343.72-21Q343.72-20 343.39-19 343.07-18 342.57-16.45L342.57-16.45 343.72-15.45 343.72 4.35Q343.72 6.5 344.17 7.65 344.62 8.8 345.64 9.25 346.67 9.7 348.32 9.85L348.32 9.85Q348.47 10.3 348.54 10.9 348.62 11.5 348.62 12.25L348.62 12.25Q347.82 12.2 346.72 12.18 345.62 12.15 344.37 12.13 343.12 12.1 341.87 12.1L341.87 12.1Q339.97 12.1 337.92 12.13 335.87 12.15 334.72 12.25ZM347.72 0.45L347.72 0.45Q346.37 0.45 345.34 0.23 344.32 0 343.07-0.4L343.07-0.4 343.07-4.45Q344.02-3.4 345.14-2.73 346.27-2.05 347.92-2.05L347.92-2.05Q348.92-2.05 350.09-2.45 351.27-2.85 352.37-3.88 353.47-4.9 354.17-6.78 354.87-8.65 354.87-11.65L354.87-11.65Q354.87-14.1 354.19-15.98 353.52-17.85 352.32-18.9 351.12-19.95 349.52-19.95L349.52-19.95Q348.12-19.95 346.77-19.05 345.42-18.15 344.57-16.13 343.72-14.1 343.72-10.7L343.72-10.7 342.12-15.95Q342.82-17.65 343.34-18.57 343.87-19.5 344.27-19.9L344.27-19.9Q344.72-20.65 345.69-21.45 346.67-22.25 348.04-22.8 349.42-23.35 351.02-23.35L351.02-23.35Q353.97-23.35 356.07-22.23 358.17-21.1 359.34-18.75 360.52-16.4 360.52-12.8L360.52-12.8Q360.52-9 358.92-6 357.32-3 354.44-1.28 351.57 0.45 347.72 0.45ZM379.87 0.45L379.87 0.45Q379.27 0.2 378.92-0.48 378.56-1.15 378.56-2.5L378.56-2.5Q378.56-3 378.64-3.68 378.72-4.35 378.87-4.95L378.87-4.95 379.02-4.95Q378.81-4 378.24-3.05 377.67-2.1 376.81-1.35L376.81-1.35Q375.92-0.6 374.56-0.13 373.22 0.35 371.37 0.35L371.37 0.35Q368.17 0.35 366.44-1.07 364.72-2.5 364.72-5.05L364.72-5.05Q364.72-7 365.64-8.38 366.56-9.75 368.04-10.68 369.52-11.6 371.27-12.15 373.02-12.7 374.74-13.03 376.47-13.35 377.87-13.55L377.87-13.55Q377.87-15.45 377.79-16.55 377.72-17.65 377.49-18.32 377.27-19 376.81-19.5L376.81-19.5Q376.22-20.2 375.47-20.55 374.72-20.9 373.81-20.9L373.81-20.9Q372.22-20.9 371.31-19.93 370.42-18.95 370.02-17.63 369.62-16.3 369.52-15.15L369.52-15.15Q368.81-15.15 367.92-15.25 367.02-15.35 366.47-15.55L366.47-15.55Q366.56-16.85 366.54-18.4 366.52-19.95 366.22-21.15L366.22-21.15Q368.31-22.2 370.72-22.78 373.12-23.35 375.17-23.35L375.17-23.35Q377.31-23.35 378.77-22.8 380.22-22.25 381.02-21.35L381.02-21.35Q382.27-20.15 382.72-18.18 383.17-16.2 383.17-12.8L383.17-12.8 383.17-7.65Q383.17-6.2 383.39-5.35 383.62-4.5 384.27-4.13 384.92-3.75 386.22-3.7L386.22-3.7Q386.27-3.1 386.19-2.4 386.12-1.7 385.87-1.1L385.87-1.1Q384.47-1.05 382.81-0.65 381.17-0.25 379.87 0.45ZM373.06-2.8L373.06-2.8Q374.17-2.8 375.27-3.53 376.37-4.25 377.12-5.73 377.87-7.2 377.87-9.6L377.87-9.6 377.87-11.35Q376.56-11.15 375.22-10.85 373.87-10.55 372.74-10 371.62-9.45 370.94-8.55 370.27-7.65 370.27-6.15L370.27-6.15Q370.27-4.4 371.12-3.6 371.97-2.8 373.06-2.8ZM398.81-11.35L398.81-7.75Q398.81-5.6 399.26-4.45 399.71-3.3 400.74-2.85 401.76-2.4 403.41-2.25L403.41-2.25Q403.56-1.8 403.64-1.2 403.71-0.6 403.71 0.15L403.71 0.15Q402.91 0.1 401.81 0.08 400.71 0.05 399.46 0.03 398.21 0 396.96 0L396.96 0Q395.06 0 393.01 0.03 390.96 0.05 389.81 0.15L389.81 0.15Q389.81-0.65 389.86-1.25 389.91-1.85 390.11-2.25L390.11-2.25Q391.46-2.35 392.19-2.75 392.91-3.15 393.21-4.1 393.51-5.05 393.51-6.8L393.51-6.8 393.51-11.35 398.81-11.35ZM397.91-15.3L398.81-14.65 398.81-10.6 393.51-10.6 393.51-16.15 398.81-21Q398.81-19.45 398.51-18.1 398.21-16.75 397.91-15.3L397.91-15.3ZM398.81-11.9L397.71-15Q398.21-16.35 398.54-17.32 398.86-18.3 399.21-18.9L399.21-18.9Q400.31-20.65 401.84-21.8 403.36-22.95 405.36-22.95L405.36-22.95Q407.26-22.95 408.81-21.75L408.81-21.75Q408.71-20.9 408.61-19.78 408.51-18.65 408.49-17.53 408.46-16.4 408.46-15.45L408.46-15.45Q407.91-15.25 407.01-15.1 406.11-14.95 405.21-14.95L405.21-14.95Q405.11-17.2 404.49-17.98 403.86-18.75 402.86-18.75L402.86-18.75Q402.06-18.75 401.09-17.8 400.11-16.85 399.46-15.3 398.81-13.75 398.81-11.9L398.81-11.9ZM398.81-21L393.51-10.6 393.51-15.8Q393.51-17.1 393.29-17.88 393.06-18.65 392.26-19.05 391.46-19.45 389.81-19.5L389.81-19.5Q389.81-20.1 389.91-20.65 390.01-21.2 390.26-21.65L390.26-21.65Q392.16-21.75 394.31-22.25 396.46-22.75 397.61-23.35L397.61-23.35Q398.11-23.15 398.46-22.65 398.81-22.15 398.81-21L398.81-21ZM420.46 0.45L420.46 0.45Q417.36 0.45 415.84-1.15 414.31-2.75 414.31-6.4L414.31-6.4 414.31-19.3Q413.56-19.55 412.74-19.73 411.91-19.9 410.71-19.95L410.71-19.95Q410.71-20.65 410.81-21.2 410.91-21.75 411.16-22.4L411.16-22.4 414.31-22.4 414.31-28.85Q415.51-29.1 416.69-29.7 417.86-30.3 418.66-31L418.66-31Q419.21-30.8 419.41-30.35 419.61-29.9 419.61-28.25L419.61-28.25 419.61-22.4 426.01-22.4Q426.01-21.8 425.91-21.15 425.81-20.5 425.56-19.9L425.56-19.9Q423.76-19.9 422.29-19.7 420.81-19.5 419.61-19.25L419.61-19.25 419.61-7.4Q419.61-5.65 419.94-4.58 420.26-3.5 420.89-3 421.51-2.5 422.41-2.5L422.41-2.5Q423.41-2.5 424.19-2.78 424.96-3.05 425.66-3.6L425.66-3.6Q426.31-2.8 426.41-1.7L426.41-1.7Q425.56-0.8 423.86-0.18 422.16 0.45 420.46 0.45ZM443.41-6.2L446.86-14.9Q448.11-17.95 447.48-19.07 446.86-20.2 444.81-20.6L444.81-20.6Q444.61-21.15 444.51-21.78 444.41-22.4 444.41-23L444.41-23Q445.56-22.95 446.78-22.93 448.01-22.9 449.36-22.9L449.36-22.9Q450.76-22.9 452.01-22.93 453.26-22.95 454.36-23L454.36-23Q454.36-22.45 454.31-21.83 454.26-21.2 454.01-20.6L454.01-20.6Q453.11-20.4 452.51-19.93 451.91-19.45 451.36-18.45 450.81-17.45 450.06-15.65L450.06-15.65 442.71 1.85Q441.31 5.25 440.16 7.35 439.01 9.45 438.01 10.55 437.01 11.65 436.01 12.05 435.01 12.45 433.86 12.45L433.86 12.45Q432.31 12.45 431.33 12 430.36 11.55 429.81 11.05L429.81 11.05Q429.61 10.25 429.66 9.08 429.71 7.9 429.91 7.15L429.91 7.15Q430.76 7.3 431.68 7.43 432.61 7.55 433.56 7.55L433.56 7.55Q435.01 7.55 436.28 6.88 437.56 6.2 438.51 4.7L438.51 4.7Q439.11 3.75 440.48 0.78 441.86-2.2 443.41-6.2L443.41-6.2ZM443.61-4.45L440.81 1.35Q439.56-1.35 438.21-4.35 436.86-7.35 435.61-10.13 434.36-12.9 433.41-14.9L433.41-14.9Q432.36-17.2 431.61-18.35 430.86-19.5 430.21-19.98 429.56-20.45 428.76-20.6L428.76-20.6Q428.61-21.1 428.51-21.73 428.41-22.35 428.41-23L428.41-23Q429.86-22.95 431.41-22.93 432.96-22.9 434.36-22.9L434.36-22.9Q435.81-22.9 437.78-22.93 439.76-22.95 441.31-23L441.31-23Q441.31-22.3 441.23-21.68 441.16-21.05 440.96-20.6L440.96-20.6Q438.36-20.15 437.98-19.1 437.61-18.05 438.96-15.35L438.96-15.35Q439.66-13.9 440.51-11.95 441.36-10 442.18-8.03 443.01-6.05 443.61-4.45L443.61-4.45ZM475.6-22.4L481.25-22.4Q481.25-21.8 481.15-21.1 481.05-20.4 480.75-19.85L480.75-19.85Q479.3-19.85 478.03-19.68 476.75-19.5 475.6-19.15L475.6-19.15 475.6-22.4ZM470.75-10.4L470.75-24.3Q470.75-28.1 472.28-30.65 473.8-33.2 476.28-34.45 478.75-35.7 481.5-35.7L481.5-35.7Q483.5-35.7 484.68-35.33 485.85-34.95 486.7-34.4L486.7-34.4Q486.6-32.9 486.55-31.33 486.5-29.75 486.5-28.4L486.5-28.4Q485.8-28.15 484.88-28.05 483.95-27.95 483.15-27.95L483.15-27.95Q483.15-30.1 482.3-31.45 481.45-32.8 479.5-32.8L479.5-32.8Q478.25-32.8 477.48-32.02 476.7-31.25 476.35-29.73 476-28.2 476-25.9L476-25.9 476-10.4 470.75-10.4ZM467.5-22.4L471.6-22.4 471.6-19.2Q470.3-19.6 469-19.75 467.7-19.9 466.8-19.9L466.8-19.9Q466.8-20.6 466.95-21.23 467.1-21.85 467.5-22.4L467.5-22.4ZM476-11.35L476-7.75Q476-5.6 476.48-4.45 476.95-3.3 477.98-2.85 479-2.4 480.6-2.25L480.6-2.25Q480.8-1.8 480.85-1.2 480.9-0.6 480.9 0.15L480.9 0.15Q480.1 0.1 479 0.08 477.9 0.05 476.68 0.03 475.45 0 474.2 0L474.2 0Q472.3 0 470.23 0.03 468.15 0.05 467.05 0.15L467.05 0.15Q467.05-0.65 467.1-1.25 467.15-1.85 467.3-2.25L467.3-2.25Q468.65-2.35 469.4-2.75 470.15-3.15 470.45-4.1 470.75-5.05 470.75-6.8L470.75-6.8 470.75-11.35 476-11.35ZM494.25 0.2L494.25 0.2Q490.8 0.2 488.88-1.75 486.95-3.7 486.95-8.75L486.95-8.75 486.95-15.8Q486.95-17.7 486.45-18.57 485.95-19.45 483.7-19.5L483.7-19.5Q483.7-20.1 483.78-20.63 483.85-21.15 484.1-21.65L484.1-21.65Q485.95-21.75 487.93-22.25 489.9-22.75 491.05-23.35L491.05-23.35Q491.55-23.15 491.9-22.65 492.25-22.15 492.25-21L492.25-21 492.25-9.9Q492.25-6.55 493.1-4.85 493.95-3.15 496.1-3.15L496.1-3.15Q498.45-3.15 500.05-5.2 501.65-7.25 501.65-11.55L501.65-11.55 501.65-16.05Q501.65-17.95 501.03-18.82 500.4-19.7 497.95-19.75L497.95-19.75Q497.95-20.35 498-20.88 498.05-21.4 498.35-21.9L498.35-21.9Q500.55-22 502.58-22.43 504.6-22.85 505.75-23.35L505.75-23.35Q506.25-23.15 506.6-22.65 506.95-22.15 506.95-21L506.95-21 506.95-6.65 502.35-4.8Q502.1-4.1 501.65-3.45 501.2-2.8 500.6-2.25L500.6-2.25Q499.35-1.05 497.85-0.43 496.35 0.2 494.25 0.2ZM503.45 0.45L503.45 0.45Q502.85 0.2 502.48-0.33 502.1-0.85 502.1-2.45L502.1-2.45Q502.1-3.05 502.2-4.08 502.3-5.1 502.6-6.7L502.6-6.7 506.95-7.25Q506.95-6 507.15-5.2 507.35-4.4 508-4.05 508.65-3.7 510-3.7L510-3.7Q510-3.1 509.95-2.4 509.9-1.7 509.65-1.1L509.65-1.1Q508.25-1.05 506.5-0.65 504.75-0.25 503.45 0.45ZM522.6-21L517.3-10.6 517.3-15.8Q517.3-17.1 517.07-17.88 516.85-18.65 516.05-19.05 515.25-19.45 513.6-19.5L513.6-19.5Q513.6-20.1 513.7-20.65 513.8-21.2 514.05-21.65L514.05-21.65Q515.95-21.75 518.1-22.25 520.25-22.75 521.4-23.35L521.4-23.35Q521.9-23.15 522.25-22.65 522.6-22.15 522.6-21L522.6-21ZM537.7-14.95L537.7-6.6Q537.7-4.05 538.37-3.15 539.05-2.25 540.55-2.25L540.55-2.25Q540.7-1.75 540.75-1.2 540.8-0.65 540.8 0.15L540.8 0.15Q539.7 0.05 538.2 0.03 536.7 0 535.15 0L535.15 0Q534.1 0 532.92 0.03 531.75 0.05 530.7 0.08 529.65 0.1 528.85 0.15L528.85 0.15Q528.85-0.6 528.9-1.2 528.95-1.8 529.15-2.25L529.15-2.25Q530.8-2.25 531.6-3.2 532.4-4.15 532.4-6.7L532.4-6.7 532.4-13.65Q532.4-17.1 531.2-18.35 530-19.6 528-19.6L528-19.6Q526.75-19.6 525.5-18.75 524.25-17.9 523.42-16.1 522.6-14.3 522.6-11.35L522.6-11.35 522.6-6.6Q522.6-4.1 523.32-3.18 524.05-2.25 525.85-2.25L525.85-2.25Q526.05-1.75 526.1-1.18 526.15-0.6 526.15 0.15L526.15 0.15Q525.45 0.1 524.4 0.08 523.35 0.05 522.2 0.03 521.05 0 519.95 0L519.95 0Q518.9 0 517.72 0.03 516.55 0.05 515.45 0.08 514.35 0.1 513.6 0.15L513.6 0.15Q513.6-0.6 513.67-1.23 513.75-1.85 513.9-2.25L513.9-2.25Q515.85-2.25 516.57-3.18 517.3-4.1 517.3-6.6L517.3-6.6 517.3-15.8 522.6-21Q522.6-20.4 522.52-19.65 522.45-18.9 522.2-18.05L522.2-18.05Q522.4-18.4 522.6-18.8 522.8-19.2 523.15-19.65L523.15-19.65Q524.05-20.8 525.9-21.95 527.75-23.1 530.3-23.1L530.3-23.1Q532.25-23.1 533.95-22.33 535.65-21.55 536.67-19.78 537.7-18 537.7-14.95L537.7-14.95Z" opacity="1" transform="matrix(1,0,0,1,0,0)" fill="#000000" class="slogan-text-1" data-fill-palette-color="secondary" id="text-1"></path></svg></g></svg></g></svg></g></svg></g></svg></g></svg></g></svg></g><g><path d="M245.816 0c68.262 0 123.6 55.338 123.6 123.6 0 68.262-55.338 123.6-123.6 123.6-49.15 0-91.599-28.688-111.517-70.233h3.198c19.699 39.907 60.803 67.357 108.319 67.357 66.674 0 120.724-54.05 120.724-120.724 0-66.674-54.05-120.724-120.724-120.724-47.515 0-88.619 27.45-108.319 67.357l-3.198 0c19.917-41.545 62.367-70.233 111.517-70.233z" fill="#000000" stroke="transparent" data-fill-palette-color="tertiary"></path></g></svg></g><defs></defs></svg><rect width="395.52" height="247.2" fill="none" stroke="none" visibility="hidden"></rect></g></svg></g></svg>